<mxfile host="app.diagrams.net" modified="2024-02-29T16:42:48.580Z" agent="Mozilla/5.0 (Windows NT 10.0; Win64; x64) AppleWebKit/537.36 (KHTML, like Gecko) Chrome/122.0.0.0 Safari/537.36" version="24.0.0" etag="Cl40DJNkAgs-ViUnd84v" type="github">
  <diagram name="Сторінка-1" id="ufOkmBJ_OZlMlLPXt1xs">
    <mxGraphModel dx="1434" dy="1949" grid="0" gridSize="10" guides="1" tooltips="1" connect="1" arrows="1" fold="1" page="1" pageScale="1" pageWidth="827" pageHeight="1169" background="none" math="0" shadow="0">
      <root>
        <mxCell id="0" />
        <mxCell id="1" parent="0" />
        <mxCell id="v6Ifs-bFCRjWu1N7z78d-12" value="" style="group" parent="1" vertex="1" connectable="0">
          <mxGeometry x="627" y="216" width="170" height="156" as="geometry" />
        </mxCell>
        <mxCell id="v6Ifs-bFCRjWu1N7z78d-9" value="&lt;i style=&quot;font-weight: bold;&quot;&gt;Операції:&lt;/i&gt;&lt;br&gt;- Shoot;&lt;br&gt;- Rotate;" style="rounded=0;whiteSpace=wrap;html=1;align=left;container=0;" parent="v6Ifs-bFCRjWu1N7z78d-12" vertex="1">
          <mxGeometry y="110.11764705882352" width="170" height="45.88235294117647" as="geometry" />
        </mxCell>
        <mxCell id="v6Ifs-bFCRjWu1N7z78d-7" value="&lt;span style=&quot;font-size: 14px;&quot;&gt;&lt;b&gt;&lt;i&gt;Gun&lt;/i&gt;&lt;/b&gt;&lt;/span&gt;" style="rounded=0;whiteSpace=wrap;html=1;container=0;" parent="v6Ifs-bFCRjWu1N7z78d-12" vertex="1">
          <mxGeometry width="170" height="45.88235294117647" as="geometry" />
        </mxCell>
        <mxCell id="v6Ifs-bFCRjWu1N7z78d-8" value="&lt;div style=&quot;&quot;&gt;&lt;b style=&quot;background-color: initial; font-style: italic;&quot;&gt;&lt;br&gt;&lt;/b&gt;&lt;/div&gt;&lt;div style=&quot;&quot;&gt;&lt;b style=&quot;background-color: initial; font-style: italic;&quot;&gt;Атрибути:&lt;/b&gt;&lt;/div&gt;&lt;div style=&quot;&quot;&gt;&lt;span style=&quot;background-color: initial;&quot;&gt;-&amp;nbsp;&lt;/span&gt;&lt;font style=&quot;background-color: initial;&quot;&gt;&lt;span style=&quot;text-indent: -25.2pt; background-color: initial;&quot;&gt;RotationAngle&lt;/span&gt;&lt;span style=&quot;text-indent: -25.2pt; background-color: initial;&quot; lang=&quot;EN-US&quot;&gt;;&lt;/span&gt;&lt;/font&gt;&lt;/div&gt;&lt;font style=&quot;font-size: 12px;&quot;&gt;&lt;div style=&quot;&quot;&gt;&lt;span style=&quot;background-color: initial; text-indent: -25.2pt;&quot;&gt;- ActiveZone;&lt;/span&gt;&lt;/div&gt;&lt;/font&gt;&lt;p class=&quot;MsoListParagraph&quot;&gt;&lt;/p&gt;" style="rounded=0;whiteSpace=wrap;html=1;align=left;container=0;" parent="v6Ifs-bFCRjWu1N7z78d-12" vertex="1">
          <mxGeometry y="45.88235294117647" width="170" height="64.23529411764706" as="geometry" />
        </mxCell>
        <mxCell id="v6Ifs-bFCRjWu1N7z78d-17" value="" style="group" parent="1" vertex="1" connectable="0">
          <mxGeometry x="480" y="-70" width="170" height="201" as="geometry" />
        </mxCell>
        <mxCell id="v6Ifs-bFCRjWu1N7z78d-18" value="&lt;i style=&quot;font-weight: bold;&quot;&gt;Операції:&lt;/i&gt;&lt;br&gt;- Restart;&lt;br&gt;- Exit;&lt;br&gt;- ResetHighScore;&lt;br&gt;- ChangeMode;&lt;div&gt;- ShowInfo;&lt;/div&gt;" style="rounded=0;whiteSpace=wrap;html=1;align=left;container=0;" parent="v6Ifs-bFCRjWu1N7z78d-17" vertex="1">
          <mxGeometry y="116.36842105263158" width="170" height="84.63157894736841" as="geometry" />
        </mxCell>
        <mxCell id="v6Ifs-bFCRjWu1N7z78d-19" value="&lt;span style=&quot;font-size: 14px;&quot;&gt;&lt;b&gt;&lt;i&gt;Menu&lt;/i&gt;&lt;/b&gt;&lt;/span&gt;" style="rounded=0;whiteSpace=wrap;html=1;container=0;" parent="v6Ifs-bFCRjWu1N7z78d-17" vertex="1">
          <mxGeometry width="170" height="52.89473684210526" as="geometry" />
        </mxCell>
        <mxCell id="v6Ifs-bFCRjWu1N7z78d-20" value="&lt;div style=&quot;&quot;&gt;&lt;b style=&quot;background-color: initial; font-style: italic;&quot;&gt;&lt;br&gt;&lt;/b&gt;&lt;/div&gt;&lt;div style=&quot;&quot;&gt;&lt;b style=&quot;background-color: initial; font-style: italic;&quot;&gt;Атрибути:&lt;/b&gt;&lt;/div&gt;&lt;div style=&quot;&quot;&gt;&lt;span style=&quot;background-color: initial;&quot;&gt;- IsPaused&lt;/span&gt;&lt;font style=&quot;background-color: initial;&quot;&gt;&lt;span style=&quot;text-indent: -25.2pt; background-color: initial;&quot; lang=&quot;EN-US&quot;&gt;;&lt;/span&gt;&lt;/font&gt;&lt;/div&gt;&lt;font style=&quot;font-size: 12px;&quot;&gt;&lt;div style=&quot;&quot;&gt;&lt;span style=&quot;background-color: initial; text-indent: -25.2pt;&quot;&gt;- HighScore;&lt;/span&gt;&lt;/div&gt;&lt;/font&gt;&lt;p class=&quot;MsoListParagraph&quot;&gt;&lt;/p&gt;" style="rounded=0;whiteSpace=wrap;html=1;align=left;container=0;" parent="v6Ifs-bFCRjWu1N7z78d-17" vertex="1">
          <mxGeometry y="52.89473684210526" width="170" height="63.473684210526315" as="geometry" />
        </mxCell>
        <mxCell id="v6Ifs-bFCRjWu1N7z78d-24" value="" style="group" parent="1" vertex="1" connectable="0">
          <mxGeometry x="322" y="188" width="170" height="252" as="geometry" />
        </mxCell>
        <mxCell id="v6Ifs-bFCRjWu1N7z78d-13" value="" style="group" parent="v6Ifs-bFCRjWu1N7z78d-24" vertex="1" connectable="0">
          <mxGeometry width="170" height="116" as="geometry" />
        </mxCell>
        <mxCell id="v6Ifs-bFCRjWu1N7z78d-15" value="&lt;span style=&quot;font-size: 14px;&quot;&gt;&lt;b&gt;&lt;i&gt;Game&lt;/i&gt;&lt;/b&gt;&lt;/span&gt;" style="rounded=0;whiteSpace=wrap;html=1;container=0;" parent="v6Ifs-bFCRjWu1N7z78d-13" vertex="1">
          <mxGeometry width="170" height="32.94117647058823" as="geometry" />
        </mxCell>
        <mxCell id="v6Ifs-bFCRjWu1N7z78d-16" value="&lt;div style=&quot;&quot;&gt;&lt;b style=&quot;background-color: initial; font-style: italic;&quot;&gt;&lt;br&gt;&lt;/b&gt;&lt;/div&gt;&lt;div style=&quot;&quot;&gt;&lt;b style=&quot;background-color: initial; font-style: italic;&quot;&gt;Атрибути:&lt;/b&gt;&lt;/div&gt;&lt;font style=&quot;font-size: 12px;&quot;&gt;&lt;div style=&quot;&quot;&gt;&lt;span style=&quot;background-color: initial; text-indent: -25.2pt;&quot;&gt;- Gun;&lt;/span&gt;&lt;/div&gt;&lt;div style=&quot;&quot;&gt;&lt;span style=&quot;background-color: initial; text-indent: -25.2pt;&quot;&gt;- Menu;&lt;/span&gt;&lt;/div&gt;&lt;div style=&quot;&quot;&gt;&lt;span style=&quot;background-color: initial; text-indent: -25.2pt;&quot;&gt;- GameContext;&lt;/span&gt;&lt;/div&gt;&lt;/font&gt;&lt;p class=&quot;MsoListParagraph&quot;&gt;&lt;/p&gt;" style="rounded=0;whiteSpace=wrap;html=1;align=left;container=0;" parent="v6Ifs-bFCRjWu1N7z78d-13" vertex="1">
          <mxGeometry y="32.94" width="170" height="63.06" as="geometry" />
        </mxCell>
        <mxCell id="v6Ifs-bFCRjWu1N7z78d-14" value="&lt;i style=&quot;font-weight: bold;&quot;&gt;Операції:&lt;br&gt;&lt;/i&gt;- Render;&lt;br&gt;- Start;&lt;br&gt;- SetMode;&lt;br&gt;- Restart;&lt;br&gt;- Pause;&lt;br&gt;- Exit;" style="rounded=0;whiteSpace=wrap;html=1;align=left;container=0;" parent="v6Ifs-bFCRjWu1N7z78d-24" vertex="1">
          <mxGeometry y="96" width="170" height="156" as="geometry" />
        </mxCell>
        <mxCell id="v6Ifs-bFCRjWu1N7z78d-29" value="" style="group" parent="1" vertex="1" connectable="0">
          <mxGeometry x="160" y="-70" width="170" height="200" as="geometry" />
        </mxCell>
        <mxCell id="v6Ifs-bFCRjWu1N7z78d-28" value="&lt;div style=&quot;&quot;&gt;&lt;b style=&quot;background-color: initial; font-style: italic;&quot;&gt;&lt;br&gt;&lt;/b&gt;&lt;/div&gt;&lt;div style=&quot;&quot;&gt;&lt;b style=&quot;background-color: initial; font-style: italic;&quot;&gt;Атрибути:&lt;/b&gt;&lt;/div&gt;&lt;font style=&quot;font-size: 12px;&quot;&gt;&lt;div style=&quot;&quot;&gt;&lt;span style=&quot;background-color: initial; text-indent: -25.2pt;&quot;&gt;- FPS;&lt;/span&gt;&lt;/div&gt;&lt;div style=&quot;&quot;&gt;&lt;span style=&quot;background-color: initial; text-indent: -25.2pt;&quot;&gt;- ScreenWidth;&lt;/span&gt;&lt;/div&gt;&lt;div style=&quot;&quot;&gt;&lt;span style=&quot;background-color: initial; text-indent: -25.2pt;&quot;&gt;- ScreenHeight;&lt;/span&gt;&lt;/div&gt;&lt;div style=&quot;&quot;&gt;&lt;span style=&quot;background-color: initial; text-indent: -25.2pt;&quot;&gt;- NumberOfTargets;&lt;br&gt;&lt;/span&gt;&lt;/div&gt;&lt;div style=&quot;&quot;&gt;&lt;span style=&quot;background-color: initial; text-indent: -25.2pt;&quot;&gt;- YPositionOfTarget;&lt;/span&gt;&lt;/div&gt;&lt;/font&gt;&lt;p class=&quot;MsoListParagraph&quot;&gt;&lt;/p&gt;" style="rounded=0;whiteSpace=wrap;html=1;align=left;container=0;" parent="v6Ifs-bFCRjWu1N7z78d-29" vertex="1">
          <mxGeometry y="47" width="170" height="130" as="geometry" />
        </mxCell>
        <mxCell id="v6Ifs-bFCRjWu1N7z78d-27" value="&lt;span style=&quot;font-size: 14px;&quot;&gt;&lt;b&gt;&lt;i&gt;Settings&lt;/i&gt;&lt;/b&gt;&lt;/span&gt;" style="rounded=0;whiteSpace=wrap;html=1;container=0;" parent="v6Ifs-bFCRjWu1N7z78d-29" vertex="1">
          <mxGeometry width="170" height="50" as="geometry" />
        </mxCell>
        <mxCell id="v6Ifs-bFCRjWu1N7z78d-30" value="" style="endArrow=diamondThin;endFill=1;endSize=24;html=1;rounded=0;exitX=0.5;exitY=0;exitDx=0;exitDy=0;entryX=0.5;entryY=1;entryDx=0;entryDy=0;" parent="1" source="6b1-KWQYZsImFKnEMROT-3" target="v6Ifs-bFCRjWu1N7z78d-28" edge="1">
          <mxGeometry width="160" relative="1" as="geometry">
            <mxPoint x="290" y="160" as="sourcePoint" />
            <mxPoint x="450" y="160" as="targetPoint" />
            <Array as="points">
              <mxPoint x="117" y="159" />
              <mxPoint x="245" y="159" />
            </Array>
          </mxGeometry>
        </mxCell>
        <mxCell id="v6Ifs-bFCRjWu1N7z78d-32" value="" style="endArrow=diamondThin;endFill=1;endSize=24;html=1;rounded=0;exitX=0.996;exitY=0.38;exitDx=0;exitDy=0;entryX=0;entryY=0.5;entryDx=0;entryDy=0;exitPerimeter=0;" parent="1" source="v6Ifs-bFCRjWu1N7z78d-14" target="v6Ifs-bFCRjWu1N7z78d-8" edge="1">
          <mxGeometry width="160" relative="1" as="geometry">
            <mxPoint x="370" y="260" as="sourcePoint" />
            <mxPoint x="530" y="260" as="targetPoint" />
            <Array as="points">
              <mxPoint x="560" y="343" />
              <mxPoint x="560" y="295" />
            </Array>
          </mxGeometry>
        </mxCell>
        <mxCell id="v6Ifs-bFCRjWu1N7z78d-33" value="" style="endArrow=diamondThin;endFill=0;endSize=24;html=1;rounded=0;exitX=0.5;exitY=0;exitDx=0;exitDy=0;entryX=0.5;entryY=1;entryDx=0;entryDy=0;" parent="1" source="v6Ifs-bFCRjWu1N7z78d-15" target="v6Ifs-bFCRjWu1N7z78d-18" edge="1">
          <mxGeometry width="160" relative="1" as="geometry">
            <mxPoint x="376" y="80" as="sourcePoint" />
            <mxPoint x="451" y="100" as="targetPoint" />
            <Array as="points">
              <mxPoint x="407" y="170" />
              <mxPoint x="565" y="170" />
            </Array>
          </mxGeometry>
        </mxCell>
        <mxCell id="v6Ifs-bFCRjWu1N7z78d-34" value="" style="endArrow=diamondThin;endFill=1;endSize=24;html=1;rounded=0;entryX=1;entryY=0.42;entryDx=0;entryDy=0;entryPerimeter=0;exitX=-0.001;exitY=0.427;exitDx=0;exitDy=0;exitPerimeter=0;" parent="1" source="v6Ifs-bFCRjWu1N7z78d-20" target="v6Ifs-bFCRjWu1N7z78d-28" edge="1">
          <mxGeometry width="160" relative="1" as="geometry">
            <mxPoint x="475" y="10" as="sourcePoint" />
            <mxPoint x="440" y="280" as="targetPoint" />
            <Array as="points">
              <mxPoint x="410" y="10" />
              <mxPoint x="410" y="32" />
            </Array>
          </mxGeometry>
        </mxCell>
        <mxCell id="6b1-KWQYZsImFKnEMROT-1" value="" style="group" vertex="1" connectable="0" parent="1">
          <mxGeometry x="15" y="171" width="204" height="571" as="geometry" />
        </mxCell>
        <mxCell id="6b1-KWQYZsImFKnEMROT-2" value="&lt;div style=&quot;&quot;&gt;&lt;b style=&quot;background-color: initial; font-style: italic;&quot;&gt;&lt;br&gt;&lt;/b&gt;&lt;/div&gt;&lt;div style=&quot;&quot;&gt;&lt;b style=&quot;background-color: initial; font-style: italic;&quot;&gt;Атрибути:&lt;/b&gt;&lt;/div&gt;&lt;font style=&quot;font-size: 12px;&quot;&gt;&lt;div style=&quot;&quot;&gt;&lt;span style=&quot;background-color: initial; text-indent: -25.2pt;&quot;&gt;- Ammo;&lt;/span&gt;&lt;/div&gt;&lt;div style=&quot;&quot;&gt;&lt;span style=&quot;background-color: initial; text-indent: -25.2pt;&quot;&gt;- Settings;&lt;/span&gt;&lt;/div&gt;&lt;div style=&quot;&quot;&gt;&lt;span style=&quot;background-color: initial; text-indent: -25.2pt;&quot;&gt;- Font;&lt;/span&gt;&lt;/div&gt;&lt;div style=&quot;&quot;&gt;&lt;span style=&quot;background-color: initial; text-indent: -25.2pt;&quot;&gt;- ScreenSize;&lt;/span&gt;&lt;/div&gt;&lt;div style=&quot;&quot;&gt;- Assets;&lt;/div&gt;&lt;div style=&quot;&quot;&gt;- Points;&lt;/div&gt;&lt;div style=&quot;&quot;&gt;- Timer;&lt;br&gt;- Ammo;&lt;/div&gt;&lt;div style=&quot;&quot;&gt;- Mode;&lt;/div&gt;&lt;div style=&quot;&quot;&gt;- Shots;&lt;/div&gt;&lt;div style=&quot;&quot;&gt;- Targets;&lt;/div&gt;&lt;div style=&quot;&quot;&gt;- Sounds;&lt;/div&gt;&lt;div style=&quot;&quot;&gt;- IsGameOver;&lt;/div&gt;&lt;div style=&quot;&quot;&gt;- BestValues(HIghscore,Time,Ammo);&lt;/div&gt;&lt;div style=&quot;&quot;&gt;- IsPaused;&lt;/div&gt;&lt;/font&gt;&lt;p class=&quot;MsoListParagraph&quot;&gt;&lt;/p&gt;" style="rounded=0;whiteSpace=wrap;html=1;align=left;container=0;" vertex="1" parent="6b1-KWQYZsImFKnEMROT-1">
          <mxGeometry y="79.97" width="204" height="248.03" as="geometry" />
        </mxCell>
        <mxCell id="6b1-KWQYZsImFKnEMROT-3" value="&lt;span style=&quot;font-size: 14px;&quot;&gt;&lt;b&gt;&lt;i&gt;GameContext&lt;/i&gt;&lt;/b&gt;&lt;/span&gt;" style="rounded=0;whiteSpace=wrap;html=1;container=0;" vertex="1" parent="6b1-KWQYZsImFKnEMROT-1">
          <mxGeometry width="204" height="85.0700848395426" as="geometry" />
        </mxCell>
        <mxCell id="6b1-KWQYZsImFKnEMROT-6" value="&lt;i style=&quot;font-weight: bold;&quot;&gt;Операції:&lt;br&gt;&lt;/i&gt;- SetTargetCoords;&lt;div&gt;- DrawLevel;&lt;/div&gt;&lt;div&gt;- MoveLevel;&lt;br&gt;- LoadAssets;&lt;br&gt;- LoadHighScore;&lt;br&gt;&lt;/div&gt;" style="rounded=0;whiteSpace=wrap;html=1;align=left;container=0;" vertex="1" parent="6b1-KWQYZsImFKnEMROT-1">
          <mxGeometry y="329" width="204" height="85" as="geometry" />
        </mxCell>
        <mxCell id="6b1-KWQYZsImFKnEMROT-4" value="" style="endArrow=diamondThin;endFill=1;endSize=24;html=1;rounded=0;exitX=0.001;exitY=0.391;exitDx=0;exitDy=0;entryX=0.997;entryY=0.181;entryDx=0;entryDy=0;entryPerimeter=0;exitPerimeter=0;" edge="1" parent="1" source="v6Ifs-bFCRjWu1N7z78d-14" target="6b1-KWQYZsImFKnEMROT-2">
          <mxGeometry width="160" relative="1" as="geometry">
            <mxPoint x="323" y="387" as="sourcePoint" />
            <mxPoint x="183" y="336" as="targetPoint" />
            <Array as="points">
              <mxPoint x="256" y="345" />
              <mxPoint x="256" y="295" />
            </Array>
          </mxGeometry>
        </mxCell>
      </root>
    </mxGraphModel>
  </diagram>
</mxfile>
